<?xml version="1.0" encoding="utf-8"?>
<!-- Generator: Adobe Illustrator 23.1.1, SVG Export Plug-In . SVG Version: 6.00 Build 0)  -->
<svg version="1.1" id="Layer_1" xmlns="http://www.w3.org/2000/svg" xmlns:xlink="http://www.w3.org/1999/xlink" x="0px" y="0px"
	 viewBox="0 0 128 128" style="enable-background:new 0 0 128 128;" xml:space="preserve">
<g>
	<g>
		<path d="M56.7,124.3c1.9,1.2,4.4,1.8,7.1,1.8c2.6,0,5.2-0.6,7.1-1.8l41.7-24.1c3.4-1.9,6-5.8,6.9-9.8c-36,2-59.7,13.4-75.3,26.7
			L56.7,124.3z"/>
		<path d="M112.7,27.3L71,3.2c-1.9-1.2-4.4-1.8-7.1-1.8s-5.2,0.6-7.1,1.8L15.1,27.3c-4,2.3-7.1,7.6-7.1,12.4v48.2
			c0,4.6,3.1,10,7.1,12.4l3.3,1.9C54.9,84,96.3,84.7,120,87.2V39.7C119.8,35.1,116.7,29.7,112.7,27.3z M86.2,77.4H41.4V54.2
			c0-0.5,0.5-1.5,1.1-1.8l20.4-11.8c0.1-0.1,0.5-0.2,1.1-0.2c0.5,0,1,0.1,1.1,0.2l20.4,11.7c0.4,0.2,1.1,1.3,1.1,1.8v23.4H86.2z
			 M99.4,77.4h-6.6V54.2c0-2.9-1.8-6-4.3-7.5L68.1,34.8c-1.2-0.7-2.7-1.1-4.3-1.1c-1.6,0-3.1,0.4-4.3,1.1L39.1,46.6
			c-2.5,1.5-4.3,4.5-4.3,7.5v23.2h-6.6V46c0-1.4,1.2-3.5,2.4-4.1l30.7-17.8c0.5-0.3,1.5-0.5,2.4-0.5c1,0,1.8,0.2,2.4,0.5L97,41.9
			c1.2,0.7,2.4,2.7,2.4,4.1L99.4,77.4L99.4,77.4z M113.2,77.4h-7.3V46c0-3.7-2.4-8-5.7-9.8L69.5,18.5c-1.6-1-3.6-1.4-5.7-1.4
			c-2.1,0-4.1,0.5-5.7,1.4L27.3,36.2c-3.3,1.9-5.7,6.1-5.7,9.8v31.4h-7.3V39.7c0-2.3,1.8-5.5,3.8-6.7L59.9,9c1-0.5,2.3-0.8,3.8-0.8
			s2.9,0.3,3.8,0.8L109.2,33c2,1.2,3.8,4.3,3.8,6.7v37.7H113.2z"/>
	</g>
</g>
</svg>
