<?xml version="1.0" encoding="utf-8"?>
<!-- Generator: Adobe Illustrator 23.1.1, SVG Export Plug-In . SVG Version: 6.00 Build 0)  -->
<svg version="1.1" id="Layer_1" xmlns="http://www.w3.org/2000/svg" xmlns:xlink="http://www.w3.org/1999/xlink" x="0px" y="0px"
	 viewBox="0 0 464 129" style="enable-background:new 0 0 464 129;" xml:space="preserve">
<style type="text/css">
	.st0{fill:#FFFFFF;}
</style>
<g>
	<g>
		<path class="st0" d="M4.6,13.5v-5h74.5v5H4.6z M4.6,23.4v-5h74.5v5H4.6z M4.6,33.4v-5h74.5v5H59.2v89.4h-5V33.4h-5v89.4h-5V33.4
			h-5v89.4h-5V33.4h-5v89.4h-5V33.4H4.6z"/>
		<path class="st0" d="M90.3,8.5h5v114.3h-5V8.5z M100.3,8.5h5v114.3h-5V8.5z M110.2,8.5h5v114.3h-5V8.5z M120.2,8.5h5v114.3h-5V8.5
			z"/>
		<path class="st0" d="M136,13.5v-5h74.5v5H136z M136,23.4v-5h74.5v5H136z M136,33.4v-5h74.5v5h-19.9v89.4h-5V33.4h-5v89.4h-5V33.4
			h-5v89.4h-5V33.4h-5v89.4h-5V33.4H136z"/>
		<path class="st0" d="M349.3,16.6v106.2h-5V8.5h5.9l70,114.3h-5.7L349.3,16.6z M354.3,30.7l5,8.4v83.6h-5V30.7z M356,8.5h5.8
			l70.2,114.3h-5.8L356,8.5z M364.2,47.2l5,8.3v67.2h-5V47.2z M367.7,8.5h5.9l70.2,114.3h-5.9L367.7,8.5z M374.2,63.5l5,8.2v51.1h-5
			V63.5z M379.4,8.5h5.8l65.1,106.2V8.5h5v114.3h-5.9L379.4,8.5z M425.5,67.8l-5-8.2V8.5h5V67.8z M435.4,84.1l-5-8.3V8.5h5V84.1z
			 M445.4,100.6l-5-8.4V8.5h5V100.6z"/>
		<g>
			<g>
				<path class="st0" d="M270.2,120.9c1.8,1.1,4.2,1.7,6.7,1.7c2.5,0,4.9-0.6,6.7-1.7l39.5-22.8c3.2-1.8,5.7-5.5,6.5-9.3
					c-34.1,1.9-56.5,12.7-71.3,25.3L270.2,120.9z"/>
				<path class="st0" d="M323.2,29.1L283.7,6.3c-1.8-1.1-4.2-1.7-6.7-1.7c-2.5,0-4.9,0.6-6.7,1.7l-39.5,22.8
					c-3.8,2.2-6.7,7.2-6.7,11.7v45.6c0,4.4,2.9,9.5,6.7,11.7l3.1,1.8c34.6-17.2,73.8-16.5,96.2-14.1v-45
					C329.9,36.4,327,31.3,323.2,29.1z M298.1,76.5h-42.4v-22c0-0.5,0.5-1.4,1-1.7L276,41.6c0.1-0.1,0.5-0.2,1-0.2
					c0.5,0,0.9,0.1,1,0.2l19.3,11.1c0.4,0.2,1,1.2,1,1.7V76.5z M310.6,76.5h-6.2v-22c0-2.7-1.7-5.7-4.1-7.1L281,36.2
					c-1.1-0.7-2.6-1-4.1-1c-1.5,0-2.9,0.4-4.1,1l-19.3,11.1c-2.4,1.4-4.1,4.3-4.1,7.1v22h-6.2V46.8c0-1.3,1.1-3.3,2.3-3.9l29.1-16.8
					c0.5-0.3,1.4-0.5,2.3-0.5c0.9,0,1.7,0.2,2.3,0.5l29.1,16.8c1.1,0.7,2.3,2.6,2.3,3.9V76.5z M323.7,76.5h-6.9V46.8
					c0-3.5-2.3-7.6-5.4-9.3l-29.1-16.8c-1.5-0.9-3.4-1.3-5.4-1.3c-2,0-3.9,0.5-5.4,1.3l-29.1,16.8c-3.1,1.8-5.4,5.8-5.4,9.3v29.7
					h-6.9V40.8c0-2.2,1.7-5.2,3.6-6.3l39.5-22.8c0.9-0.5,2.2-0.8,3.6-0.8c1.4,0,2.7,0.3,3.6,0.8l39.5,22.8c1.9,1.1,3.6,4.1,3.6,6.3
					V76.5z"/>
			</g>
		</g>
	</g>
</g>
</svg>
