<?xml version="1.0" encoding="utf-8"?>
<!-- Generator: Adobe Illustrator 23.1.0, SVG Export Plug-In . SVG Version: 6.00 Build 0)  -->
<svg version="1.1" id="Layer_1" xmlns="http://www.w3.org/2000/svg" xmlns:xlink="http://www.w3.org/1999/xlink" x="0px" y="0px"
	 viewBox="0 0 452 400" style="enable-background:new 0 0 452 400;" xml:space="preserve">
<g>
	<path d="M223.6,381.7c-2.4,0-5.2-0.1-7-0.1c-1.2,0.1-1.1,0.4-1.1,0.6c-0.1,0.4,5.4,1.6,9.7,2.1c3.1,0.3,5.8,0.1,9.1,0.3
		c5.5,0.3,7.3,0.8,10.5,1.2c4.3,0.2,9.7,0.2,15.3,0c7.4-0.5,14.9-1.6,22.3-2.8c6.6-1.4,13-2.8,17.6-3.7c5.5-1.5,11.6-2.9,19.2-6.4
		c4.6-2.2,9.6-4.2,14.2-6.7c4.6-2.5,9-4.9,13-7c12.4-7.5,25.2-16.9,36.1-28.5c4.5-4.4,8.4-9.1,12.1-13.8c3.9-4.6,7.1-9.6,10.1-14.7
		c1.5-2.4,3-4.8,4.4-7.1c1.3-2.4,2.6-4.6,3.8-6.8c4.8-7.5,8.5-17.1,12.2-27c9.2-27.8,11.9-57.9,7.6-87c-0.8-7.7-3.1-14.9-4.8-22.1
		c-1.7-5.3-3.7-10.5-5.5-15.7c-2-5.1-4.5-9.9-6.8-14.5c-1.4-3.2-3.5-6.6-5-9.7c-4.1-8.6-9.7-16.7-16.3-25.2
		c-17.1-20.8-38.4-37.7-62.9-49.9c-6.1-3.3-11.4-5.1-16.3-6.6c-2.8-0.9-5.6-1.9-8.4-3c-2.9-0.8-5.9-1.7-8.9-2.7
		c-3.4-1.1-6.7-2.2-10.2-2.9c-3.5-0.6-7-1.2-10.7-1.7c-7.8-1.4-16-1.3-24.2-1.9c-4.1-0.1-8.3,0.2-12.5,0.3c-4.2,0-8.4,0.2-12.6,0.8
		c-6.9,0.8-12.9,1.5-18.2,3.3c-4.2,1.3-8.6,2.3-13.2,3.8c-4.6,1.5-9.4,3.1-14.5,4.8c-13.5,5.3-25.2,11.6-35.9,19.4
		c-4.6,3.4-7.8,6.4-6.3,5.9c3.1-1.1,6-2,11.2-4.5c2.4-1.2,2.1-0.5-0.3,1.6c-2.5,2.2-1.2,1.8,2.6-0.5c4-2,5.2-2.3,4.2-1.6
		c-0.9,0.7-3.9,2.6-7.7,5.5c-2.1,1.5-4.1,3.1-6.1,4.5c-3.7,2.7-5,4.8-3.4,3.8c1.1-0.7,3-1.6,5.8-3.6c3.5-2.2,7-4.9,10.7-7.1
		c3.5-1.9,5.6-3,4.4-2.1c-1,0.7-2,1.4-3.3,2.1c-5.8,3.8-11.5,7.9-17.1,12.1c-5.3,4.6-10.9,8.9-15.6,14.2c-2.3,2.4-4.8,4.5-4.4,3.7
		c0.4-0.6,1.2-1.8,1.7-2.6c0.5-0.8,0.2-0.8-1.4,0.7c-1.8,1.6-5.2,5.1-6.5,7.3c-0.7,1.1-1.9,2.7-1.9,2.8c0.1,1.3-4.9,9.2,5.7-3.2
		c2.1-2.3,2.3-1.8,2.5-1.7c0.7,0.3,0.8,0.2,5.7-4.8c3.6-4,7.5-7.4,11.1-10c3.8-3,7.6-6.1,11.8-8.8c4.1-2.8,8.1-6,12.5-8.4
		c3.1-1.9,6.2-3.8,9.3-5.7c3.3-1.6,6.5-3.2,9.9-4.8c1.7-0.7,4.8-2.2,6.1-2.4c1.3-0.3,1.8-0.2,1.3,0.1c-0.4,0.4-2,1-3.7,2
		c-4.6,2.3-8.4,4.3-11.6,6.1c-3.2,1.9-5.7,3.9-7.9,5.6c-0.6,0.5-2,1.4-3.3,2.2c-2,1.1-4.3,2.5-6.1,3.9c-1,0.6-2.1,1.2-2.3,1.2
		c-0.3-0.1,0-0.7,0-1c-0.1-0.2-2.3,1.1-3.9,2.2c-4.9,3.3-9.2,7.4-13.6,11.2c-1,0.9-2,1.9-2.3,2.4c-0.7,0.8,0.3,0.3,2-1
		c0.5-0.4,1.1-0.8,1.7-1.3c5.6-4.5,8.3-6.3,9.3-6.2c0.7,0,1.5,0.1,2.6-0.1c0.2,0,2.4-1.4,3.2-2c12.2-9.5,26.8-16.7,40.7-22.2
		c9.4-3.8,19.7-6.6,30.1-8.4c5.6-0.8,11.3-2,17.1-2c5.8-0.3,11.7-0.6,17.7,0.1c9.7,0.5,18.2,2.2,27.2,3.5c3.5,0.9,7.1,1.8,10.7,2.7
		c3.6,0.8,7.2,1.9,10.7,3.3c4.7,1.9,9.6,3.3,13.7,5.9c2,1.1,4,2.2,6,3.4c1.9,1,3.7,2,5.5,2.9c1.7,1,3.4,2.1,5.1,3.1
		c1.3,0.7,2.5,1.4,3.7,2.1c4.9,2.6,9.1,6.1,13.2,9.7c3.9,3.3,7.9,7.3,12.3,11.3c0.6,0.5,1.2,1.1,1.7,1.6c4.9,4.4,8.5,9.2,12.6,14.4
		c3,4.9,7,10.2,9.9,15.7c1.5,3,3.1,5.8,4.8,8.5c2.1,3.2,3.6,6.5,5.3,9.9c3.5,6.8,4.7,10.6,6.2,16.8c0.4,1.7,0.7,3,1.1,4.6
		c0.7,2.8,1.1,5.6,2,8.5c0.8,2.6,1.4,4.8,2.3,7.5c1.3,6.7,2.5,15.2,2.2,20.2c-0.2,1.5-0.3,2.5-0.4,3.9c-0.2,2.2-0.1,4.1,0.2,8.5
		c0.2,1.4,0.2,2.4,0.1,3.9c-0.1,2.3-0.2,5.1-0.4,7.1c-0.4,3-0.6,5.7-1.2,8.3c-1.4,5.4-2.2,11.5-4,18.3c-2,7.3-4,14.6-7,21.5
		c-2.1,5.8-4.4,10.7-5.8,14.3c-0.5,1.4-1.1,2.8-1.7,4.4c-0.6,1.7-2.3,4.8-3.3,5.8c-2,2.4-3.5,3.9-6.4,7.7c-1.2,1.6-2,2.6-2,2.1
		c0.1-0.4,2.1-4,4.1-7.1c1.7-2.8,3.8-5.5,5.2-8.5c8.8-15.2,14.3-32,17.8-49.1c1-5.7,2.1-11.5,2.2-17.2c0.3-4.7-0.1-7.5-0.6-5.3
		c-1,3.1-1.1,9.5-2.3,15.8c-0.9,6.1-1.6,12.2-3.5,18c-1.6,5.9-3.3,11.7-5.8,17.3c-1.6,3.6-2.9,7.7-4.9,11.2c-3,6.1-5.9,12-9.6,17.1
		c-1.8,2.6-3.5,5.3-5.3,7.7c-2,2.3-4,4.7-5.9,7c-3,3.7-6.4,7.4-9.3,10.6c-2.4,2.6-4.1,5.2-6.5,7.3c-2.8,2.8-6.3,6-10.1,9.2l0.5-0.4
		l0.2,0.6c0.3,0.8-5.4,5-10.6,8.4c-3.2,2.2-6.6,3.6-9.9,5.4c-2.5,1.3-5.9,3.5-6.2,3.9c-0.2,0.4-0.1,0.6-0.3,1
		c-0.1,0.3-0.5,0.7-0.9,1.1c-0.1,0.1-0.8,0.5-1.1,0.7c-0.7,0.5-4.3,2.2-5.9,2.8c-1.2,0.5-2.9,1.1-3,1c-0.7-0.4-0.9-0.9-1.4-1.4
		c-0.2,0-4.8,1.3-7.2,2.1c-3,1.1-5.9,2.2-8.8,3.3c-3.6,1.1-7.2,1.9-10.7,2.7c-3.5,0.9-6.9,1.4-10.4,1.6c-1.4,0.1-2.7,0.2-4.1,0.3
		c-2.3,0.2-4.6,0.4-6.9,0.7c-2.3,0.1-4.7,0.2-7.1,0.4c-4.5,0.3-9.1,0.8-13.8,0.4c-5-0.3-10.5-0.6-12.9-1.4c-1.9-0.7-3.4-1.2-5.3-1.8
		c-2-0.7-6.2-1.4-10.4-2.2c-6.1-1.7-12.3-2.7-18.3-5c-5-1.8-8.7-3.5-9.7-4.4c-0.6-0.6-1.2-1.1-1.9-1.8c-0.1-0.1-1.1-0.7-1.8-1
		c-0.6-0.3-1.5-0.7-1.9-0.9c-0.9-0.3-2.1-0.8-2.3-0.8c-0.8,0.1-1.3,0.4-1.9,0.6c-0.5,0.2-2-0.3-3.8-1.2c-2.5-1.4-3-1.8-3.5-2.3
		c-0.6-0.6-0.8-1-1.7-1.8c-1.6-1.4-4.4-3.4-8.2-5.9c-4.3-2.6-7.8-5.8-11.2-7.9c-2-1.5-4.2-2.7-6.1-4.4c-1.7-1.5-5.4-5.2-6-6.1
		c-0.7-1-1.5-2.2-1.4-2.4c0.2-0.3,1.3,0.4,2,0.5c0.7,0.1-1.3-1.8-3.5-4.3c-2.1-2.4-4.2-4.7-6.3-7.1c-4.2-4.4-6.4-8.1-8.7-10.3
		c-2-2.2-4.5-4.8-6.2-7.3c-0.5-0.7-1-1.2-1-1c-0.1,0.3,0,0.8,0.4,1.9c0.4,1.5,2.9,5.2,4.7,7.5c1.8,2.3,3.4,4.3,5.1,6.5
		c0.4,0.5,1.2,1.5,1.4,1.7c0.6,0.8,1.2,1.7,1.3,1.9c0,0.2-0.7-0.4-0.8-0.4c-1.6,0,6.4,11.7,18.2,21.4c2.3,1.9,4.6,3.3,6.9,5.1
		c2.6,1.9,5.8,4.5,6.7,5.5c2.8,2.5,7.7,6.8,15.7,11.5c2.8,1.5,5.6,3.1,8.4,4.6c3.5,2.1,7.3,3.4,11.1,5c3.8,1.5,7.5,3.3,11.4,4.3
		c3.1,0.9,6.4,1.9,9.4,2.8c5.9,1.7,11.8,2.3,17.4,3.5c5.7,1,11.3,1.2,16.9,1.9c3.1,0.5,6.7,0.1,10,0.1c10.3,0,17.7-1.2,24.4-1.4
		c3.1-0.1,8.6-1.5,13.1-2.3c4.7-0.7,8.4-1.9,10.5-2.2c4.1-0.6,6-0.4,4.1,1.2c-0.6,0.4-3.7,1.9-6.3,2.7c-6.7,2.1-12.6,3.1-17.4,4.6
		c-4.9,1.2-9,1.9-12.3,2.8c-0.4,0.1-1.1,0.2-1.8,0.4c-3.6,0.8-7.4,1.1-11.5,1.3c-4.1,0.1-8.5,0.6-13.1,0c-4.9-0.5-9.5-1-14.5-1.5
		c-2.3-0.4-5.2-0.8-7.7-1.3c-4-0.6-6.9-0.7-5.5-0.1c3.9,1.2,10,3.6,21.5,4.1c3.2,0.2,6.3,0.5,9.3,0.7c3.1,0,6.1-0.1,9.2-0.1
		c21.6-0.4,42.6-4,63.9-13c1.6-0.7,3.4-1.4,4.8-2c5.1-1.8,10.1-4.5,15.2-7.2c5.2-2.5,10.2-5.9,15.2-9.3c1.6-1.1,2.2-1,0.6,0.2
		c-1.7,1.3-3.8,3-5.7,4.3c-4.3,3.2-9.2,5.4-13.8,8.1c-3.6,2.1-7.3,3.8-11.1,5.4c-3.7,1.6-7.4,3.4-11.1,4.8
		c-7.6,2.6-14.9,5.6-22.3,7.3c-2.6,0.7-5.2,1.2-5.2,0.9c-0.1-0.3,1.4-1-2.4-0.4c-3.5,0.7-8.2,1-12.7,1.6l-2.7,0.3
		c-6.7,1-12.6,0.7-17.5,1.4c-4.6,0.6-8.9,0.5-14.1,0.5c-3.6-0.1-8.3-0.1-12.5-0.9L223.6,381.7z M195.1,44.1
		c-1.7,0.8-4.1,1.8-6.9,2.9c-2.7,1.2-5.9,2.5-9.1,3.9c-2.8,1.2-4.2,1.3-2.2,0.3c4-2,8.6-4.8,14.7-6.5c2-0.6,4.3-1.2,4.1-0.9
		C195.5,43.8,195.5,43.9,195.1,44.1z M223.1,30.9c-1.3,0.1-2.7,0.2-2.8,0.1c-0.1-0.1,1-0.4,2.1-0.6c4.1-0.6,8.4-1.4,12.6-1.7
		c2.1-0.1,4.6,0,6,0.1c1.7,0.1-1.6,0.6-5.2,0.7c-0.9,0-1.7,0.1-2.6,0.2l-5.2,0.6C226.3,30.6,224.5,30.8,223.1,30.9z M206.7,25.9
		c5.3-1,8-1.4,9.4-1.2c1.1,0.1-3.2,1.4-7.6,2.3c-3.8,0.8-6.3,1.2-7.5,1.2c-1.4,0-2.3-0.1,0.9-1.2c0.5-0.1,1.4-0.4,2.2-0.6
		C205,26.3,205.9,26.1,206.7,25.9z M175.1,37c5.6-2.2,8.5-2.8,8-2c-0.1,0.1-1.6,0.9-2.8,1.5c-1.2,0.6-3.5,1.5-4.4,1.8
		c-4,1.4-6.4,2-7.1,1.9c-0.2,0,1-0.7,1.9-1.2c0.3-0.2,1.4-0.7,2.2-1C173.6,37.6,174.5,37.2,175.1,37z M250.1,368.1
		c1-0.1,3.6-0.2,4.3-0.2c3.8,0.1,2.6,0.8-2.2,1.1c-0.9,0.1-3.1,0-3.8-0.1c-0.7-0.1-0.4-0.2-0.5-0.4
		C248.6,368.4,248.9,368.2,250.1,368.1z M367.5,314.7c1.8-1.8,2.9-2.7,3.1-2.6c0.3,0-0.3,0.9-2,2.8c-1.5,1.6-3.5,3.6-4.2,4
		c-0.4,0.3-0.4,0-0.6,0C364.1,318.3,365.9,316.3,367.5,314.7z M427.3,157.1c-0.6-1.5-1.2-4.7-1.8-6.6c-0.3-1-0.3-1.8-0.2-1.5
		c0.4,0.5,1.5,3.3,2,6C427.8,157.4,427.8,158.5,427.3,157.1z M315,365.1c0.9-0.3,1.4-0.4,1.1-0.1c-0.5,0.4-4,2.2-5.7,2.5
		c-0.9,0.2-0.9,0.1-1.3,0.1C310.2,367.1,313.5,365.8,315,365.1z M240.3,32.6c-1.1,0-3.1,0-3.3-0.1c-0.4-0.2,1.6-0.4,4.2-0.5
		c1.1,0,3.1,0,3.2,0.1C244.9,32.3,242.9,32.5,240.3,32.6z M181.2,41.6c1-0.5,2.8-1.5,4.1-1.8c2.5-0.8,3.4-0.8,1.6,0
		c-1,0.4-2.8,1-4.2,1.7C180.5,42.3,179.5,42.5,181.2,41.6z M218.8,35.9c-1.4,0.3-2.9,0.7-3.7,0.7c-0.2,0,0-0.1,0.4-0.3
		c1.4-0.5,2.8-0.7,3.7-0.7C219.1,35.8,219.2,35.8,218.8,35.9z M351.2,332.8c-0.1,0,0.4-0.5,0.7-0.7c0.4-0.3,1.1-0.8,1.1-0.9
		c0.1,0-0.4,0.5-0.7,0.7C352,332.2,351.3,332.7,351.2,332.8z"/>
</g>
<g>
	<path d="M34.5,271.3V146.4H16.1v-29.7h67.7v29.7H65.5v124.9H34.5z"/>
	<path d="M91,271.3V116.7h29.9v154.6H91z"/>
	<path d="M146.6,271.3V146.4h-18.4v-29.7H196v29.7h-18.4v124.9H146.6z"/>
	<path d="M200.5,271.3l14.9-154.6h52.4l14.8,154.6h-29.3l-2.2-25h-18.7l-1.8,25H200.5z M234.7,221.6h14l-6.8-78.7h-1.4L234.7,221.6z
		"/>
	<path d="M291.9,271.3V116.7h31.9l14.2,74v-74h29.9v154.6h-30.2l-15.5-77.4v77.4H291.9z"/>
</g>
</svg>
